<svg width="339" height="83" viewBox="0 0 339 83" fill="none" xmlns="http://www.w3.org/2000/svg">
<g filter="url(#filter0_d_15_12)">
<circle cx="41.5" cy="37.5" r="37.5" fill="#83FD24"/>
<path d="M41.4503 19.7151V37.5L36.5828 35.1838C27.9404 31.0478 22.5762 23.3548 22.5762 15H19V35.3493C19 41.9669 23.5695 48.0882 30.8212 50.9835L41.5497 55.2849V37.5L46.4172 39.8162C55.0596 43.9522 60.4238 51.6452 60.4238 60H64V39.6507C64 33.0331 59.4305 26.9118 52.1788 24.0165L41.4503 19.7151Z" fill="white"/>
<path d="M98.2017 60V30.9091H105.233V42.5852H116.696V30.9091H123.713V60H116.696V48.3097H105.233V60H98.2017ZM134.416 60H126.859L136.675 30.9091H146.036L155.851 60H148.294L141.462 38.2386H141.234L134.416 60ZM133.408 48.5511H149.203V53.892H133.408V48.5511ZM158.983 60V30.9091H166.014V43.2102H166.398L176.014 30.9091H184.295L173.983 43.892L184.48 60H176.071L168.827 48.5653L166.014 52.1165V60H158.983ZM211.387 39.6307C211.292 38.589 210.871 37.7794 210.123 37.2017C209.384 36.6146 208.328 36.321 206.955 36.321C206.046 36.321 205.289 36.4394 204.683 36.6761C204.076 36.9129 203.622 37.2396 203.319 37.6562C203.016 38.0634 202.86 38.5322 202.85 39.0625C202.831 39.4981 202.916 39.8816 203.106 40.2131C203.305 40.5445 203.589 40.8381 203.958 41.0938C204.337 41.34 204.791 41.5578 205.322 41.7472C205.852 41.9366 206.449 42.1023 207.112 42.2443L209.612 42.8125C211.051 43.125 212.32 43.5417 213.418 44.0625C214.526 44.5833 215.454 45.2036 216.202 45.9233C216.96 46.643 217.533 47.4716 217.921 48.4091C218.309 49.3466 218.508 50.3977 218.518 51.5625C218.508 53.3996 218.044 54.9763 217.126 56.2926C216.207 57.6089 214.886 58.6174 213.163 59.3182C211.449 60.0189 209.379 60.3693 206.955 60.3693C204.522 60.3693 202.4 60.0047 200.592 59.2756C198.783 58.5464 197.377 57.4384 196.373 55.9517C195.369 54.465 194.853 52.5852 194.825 50.3125H201.558C201.614 51.25 201.865 52.0312 202.31 52.6562C202.755 53.2812 203.366 53.7547 204.143 54.0767C204.929 54.3987 205.838 54.5597 206.87 54.5597C207.817 54.5597 208.622 54.4318 209.285 54.1761C209.957 53.9205 210.473 53.5653 210.833 53.1108C211.193 52.6562 211.378 52.1354 211.387 51.5483C211.378 50.9991 211.207 50.5303 210.876 50.142C210.544 49.7443 210.033 49.4034 209.342 49.1193C208.66 48.8258 207.789 48.5559 206.728 48.3097L203.688 47.5994C201.169 47.0218 199.185 46.089 197.737 44.8011C196.288 43.5038 195.568 41.7519 195.577 39.5455C195.568 37.7462 196.051 36.1695 197.026 34.8153C198.002 33.4612 199.351 32.4053 201.075 31.6477C202.798 30.8902 204.763 30.5114 206.969 30.5114C209.223 30.5114 211.179 30.8949 212.836 31.6619C214.503 32.4195 215.795 33.4848 216.714 34.858C217.632 36.2311 218.101 37.822 218.12 39.6307H211.387ZM222.069 60V30.9091H242.353V36.6193H229.1V42.5852H241.316V48.3097H229.1V54.2898H242.353V60H222.069ZM274.214 45.4545C274.214 48.6553 273.598 51.3684 272.367 53.5938C271.136 55.8191 269.469 57.5095 267.367 58.6648C265.274 59.8201 262.926 60.3977 260.322 60.3977C257.708 60.3977 255.355 59.8153 253.262 58.6506C251.169 57.4858 249.507 55.7955 248.276 53.5795C247.055 51.3542 246.444 48.6458 246.444 45.4545C246.444 42.2538 247.055 39.5407 248.276 37.3153C249.507 35.09 251.169 33.3996 253.262 32.2443C255.355 31.089 257.708 30.5114 260.322 30.5114C262.926 30.5114 265.274 31.089 267.367 32.2443C269.469 33.3996 271.136 35.09 272.367 37.3153C273.598 39.5407 274.214 42.2538 274.214 45.4545ZM267.026 45.4545C267.026 43.5606 266.756 41.9602 266.217 40.6534C265.686 39.3466 264.919 38.357 263.915 37.6847C262.921 37.0123 261.723 36.6761 260.322 36.6761C258.93 36.6761 257.732 37.0123 256.728 37.6847C255.724 38.357 254.952 39.3466 254.413 40.6534C253.882 41.9602 253.617 43.5606 253.617 45.4545C253.617 47.3485 253.882 48.9489 254.413 50.2557C254.952 51.5625 255.724 52.5521 256.728 53.2244C257.732 53.8968 258.93 54.233 260.322 54.233C261.723 54.233 262.921 53.8968 263.915 53.2244C264.919 52.5521 265.686 51.5625 266.217 50.2557C266.756 48.9489 267.026 47.3485 267.026 45.4545ZM303.077 30.9091V60H297.112L285.535 43.2102H285.35V60H278.319V30.9091H284.37L295.819 47.6705H296.06V30.9091H303.077ZM326.589 40.4119C326.429 39.8153 326.192 39.2898 325.879 38.8352C325.567 38.3712 325.183 37.9782 324.729 37.6562C324.274 37.3343 323.753 37.0928 323.166 36.9318C322.579 36.7614 321.935 36.6761 321.234 36.6761C319.823 36.6761 318.602 37.017 317.57 37.6989C316.547 38.3807 315.756 39.375 315.197 40.6818C314.639 41.9792 314.359 43.5559 314.359 45.4119C314.359 47.2775 314.629 48.8684 315.169 50.1847C315.709 51.5009 316.49 52.5047 317.513 53.196C318.536 53.8873 319.776 54.233 321.234 54.233C322.522 54.233 323.611 54.0246 324.501 53.608C325.401 53.1818 326.083 52.5805 326.547 51.804C327.011 51.0275 327.243 50.1136 327.243 49.0625L328.55 49.2188H321.476V44.0909H334.018V47.9403C334.018 50.5445 333.464 52.7746 332.357 54.6307C331.258 56.4867 329.743 57.9119 327.811 58.9062C325.889 59.9006 323.678 60.3977 321.178 60.3977C318.403 60.3977 315.964 59.7964 313.862 58.5938C311.76 57.3911 310.122 55.6771 308.947 53.4517C307.773 51.2169 307.186 48.5653 307.186 45.4972C307.186 43.1108 307.541 40.9943 308.251 39.1477C308.962 37.2917 309.951 35.7197 311.22 34.4318C312.499 33.1439 313.976 32.1686 315.652 31.5057C317.338 30.8428 319.151 30.5114 321.092 30.5114C322.778 30.5114 324.345 30.7528 325.794 31.2358C327.252 31.7188 328.54 32.4006 329.658 33.2812C330.785 34.1619 331.698 35.2083 332.399 36.4205C333.1 37.6326 333.536 38.9631 333.706 40.4119H326.589Z" fill="#60FE16"/>
</g>
<defs>
<filter id="filter0_d_15_12" x="0" y="0" width="338.018" height="83" filterUnits="userSpaceOnUse" color-interpolation-filters="sRGB">
<feFlood flood-opacity="0" result="BackgroundImageFix"/>
<feColorMatrix in="SourceAlpha" type="matrix" values="0 0 0 0 0 0 0 0 0 0 0 0 0 0 0 0 0 0 127 0" result="hardAlpha"/>
<feOffset dy="4"/>
<feGaussianBlur stdDeviation="2"/>
<feComposite in2="hardAlpha" operator="out"/>
<feColorMatrix type="matrix" values="0 0 0 0 0 0 0 0 0 0 0 0 0 0 0 0 0 0 0.25 0"/>
<feBlend mode="normal" in2="BackgroundImageFix" result="effect1_dropShadow_15_12"/>
<feBlend mode="normal" in="SourceGraphic" in2="effect1_dropShadow_15_12" result="shape"/>
</filter>
</defs>
</svg>
