<svg width="186" height="76" viewBox="0 0 186 76" fill="none" xmlns="http://www.w3.org/2000/svg">
<g id="&#235;&#161;&#156;&#234;&#179;&#160;">
<g id="Group 115">
<path id="Vector" d="M80.7695 40.3586C76.6878 46.5353 68.3771 49.474 59.9738 49.474H26.2578C61.3563 45.7847 85.7998 31.0274 88.9336 10.4727C92.0674 31.0274 116.511 45.7847 151.609 49.474H117.893C109.49 49.474 101.179 46.5353 97.0978 40.3586C92.6799 33.6732 89.8652 26.1084 88.9336 17.8513C88.002 26.1084 85.1874 33.6732 80.7695 40.3586Z" fill="white"/>
<path id="Vector_2" d="M61.4249 37.0844C59.4514 38.0224 57.3756 38.9034 55.202 39.724C53.9673 36.1234 53.513 32.3458 53.8754 28.5827C54.3547 23.6043 56.2485 18.8048 59.389 14.6095C62.5296 10.4142 66.8199 6.95228 71.8799 4.53061C76.9399 2.10895 82.6136 0.802218 88.3982 0.726177C94.1828 0.650126 99.8999 1.80711 105.043 4.09465C110.186 6.38217 114.596 9.72959 117.883 13.8405C121.17 17.9514 123.232 22.6988 123.887 27.6622C124.422 31.722 124.003 35.8239 122.665 39.724C120.492 38.9034 118.416 38.0223 116.443 37.0843C117.275 34.233 117.508 31.2666 117.12 28.3277C116.592 24.3252 114.929 20.4968 112.279 17.1819C109.628 13.8669 106.072 11.1675 101.924 9.32282C97.7768 7.47814 93.1665 6.54516 88.5019 6.60648C83.8371 6.6678 79.2619 7.72155 75.1816 9.67433C71.1012 11.6272 67.6414 14.4188 65.1089 17.802C62.5764 21.1851 61.0492 25.0554 60.6627 29.07C60.4029 31.7684 60.6637 34.4761 61.4249 37.0844Z" fill="white"/>
</g>
<g id="SAMSUNG TOUR">
<path d="M9.53065 63.9829C9.46587 63.3314 9.18787 62.8253 8.69666 62.4646C8.20544 62.1039 7.53879 61.9235 6.6967 61.9235C6.12451 61.9235 5.64139 62.0043 5.24734 62.1658C4.85328 62.3219 4.551 62.54 4.34047 62.82C4.13535 63.0999 4.03279 63.4176 4.03279 63.7729C4.02199 64.069 4.08407 64.3275 4.21902 64.5482C4.35937 64.769 4.551 64.9601 4.79391 65.1216C5.03682 65.2778 5.31751 65.415 5.63599 65.5335C5.95447 65.6466 6.29455 65.7435 6.65621 65.8242L8.14606 66.1796C8.86939 66.3411 9.53334 66.5565 10.1379 66.8257C10.7425 67.0949 11.2661 67.426 11.7087 67.819C12.1514 68.212 12.4941 68.6751 12.7371 69.2081C12.9854 69.7411 13.1122 70.3522 13.1176 71.0413C13.1122 72.0535 12.8531 72.9311 12.3403 73.6741C11.8329 74.4117 11.0988 74.9851 10.1379 75.3943C9.18248 75.7981 8.03 76 6.68051 76C5.3418 76 4.17584 75.7954 3.18261 75.3862C2.19477 74.977 1.42286 74.3713 0.866866 73.5691C0.316271 72.7615 0.0274783 71.7628 0.000488281 70.5729H3.39313C3.43091 71.1275 3.59015 71.5905 3.87085 71.962C4.15694 72.3281 4.5375 72.6054 5.01252 72.7938C5.49295 72.9769 6.03544 73.0684 6.64002 73.0684C7.2338 73.0684 7.74931 72.9823 8.18654 72.81C8.62918 72.6377 8.97195 72.3981 9.21486 72.0912C9.45777 71.7843 9.57923 71.4317 9.57923 71.0333C9.57923 70.6618 9.46857 70.3495 9.24725 70.0964C9.03133 69.8434 8.71285 69.628 8.29181 69.4504C7.87616 69.2727 7.36605 69.1112 6.76147 68.9658L4.95585 68.5135C3.55777 68.1743 2.45388 67.644 1.64418 66.9226C0.834478 66.2011 0.432328 65.2293 0.437726 64.0071C0.432328 63.0057 0.699528 62.1308 1.23933 61.3824C1.78453 60.634 2.53215 60.0499 3.48219 59.6299C4.43224 59.21 5.51184 59 6.72099 59C7.95173 59 9.02593 59.21 9.94359 59.6299C10.8666 60.0499 11.5846 60.634 12.0974 61.3824C12.6102 62.1308 12.8747 62.9976 12.8909 63.9829H9.53065Z" fill="white"/>
<path d="M17.9556 75.7658H14.1986L19.9231 59.2261H24.4413L30.1577 75.7658H26.4007L22.247 63.0057H22.1174L17.9556 75.7658ZM17.7208 69.2646H26.5951V71.9943H17.7208V69.2646Z" fill="white"/>
<path d="M32.1536 59.2261H36.4774L41.0441 70.3387H41.2385L45.8052 59.2261H50.129V75.7658H46.7282V65.0005H46.5906L42.2992 75.685H39.9834L35.692 64.9601H35.5544V75.7658H32.1536V59.2261Z" fill="white"/>
<path d="M62.0133 63.9829C61.9485 63.3314 61.6705 62.8253 61.1793 62.4646C60.6881 62.1039 60.0214 61.9235 59.1794 61.9235C58.6072 61.9235 58.124 62.0043 57.73 62.1658C57.3359 62.3219 57.0337 62.54 56.8231 62.82C56.618 63.0999 56.5154 63.4176 56.5154 63.7729C56.5047 64.069 56.5667 64.3275 56.7017 64.5482C56.842 64.769 57.0337 64.9601 57.2766 65.1216C57.5195 65.2778 57.8002 65.415 58.1187 65.5335C58.4371 65.6466 58.7772 65.7435 59.1389 65.8242L60.6287 66.1796C61.3521 66.3411 62.016 66.5565 62.6206 66.8257C63.2252 67.0949 63.7488 67.426 64.1914 67.819C64.634 68.212 64.9768 68.6751 65.2197 69.2081C65.468 69.7411 65.5949 70.3522 65.6003 71.0413C65.5949 72.0535 65.3358 72.9311 64.823 73.6741C64.3155 74.4117 63.5814 74.9851 62.6206 75.3943C61.6651 75.7981 60.5127 76 59.1632 76C57.8245 76 56.6585 75.7954 55.6653 75.3862C54.6774 74.977 53.9055 74.3713 53.3495 73.5691C52.7989 72.7615 52.5101 71.7628 52.4832 70.5729H55.8758C55.9136 71.1275 56.0728 71.5905 56.3535 71.962C56.6396 72.3281 57.0202 72.6054 57.4952 72.7938C57.9756 72.9769 58.5181 73.0684 59.1227 73.0684C59.7165 73.0684 60.232 72.9823 60.6692 72.81C61.1118 72.6377 61.4546 72.3981 61.6975 72.0912C61.9404 71.7843 62.0619 71.4317 62.0619 71.0333C62.0619 70.6618 61.9512 70.3495 61.7299 70.0964C61.514 69.8434 61.1955 69.628 60.7745 69.4504C60.3588 69.2727 59.8487 69.1112 59.2441 68.9658L57.4385 68.5135C56.0404 68.1743 54.9365 67.644 54.1268 66.9226C53.3171 66.2011 52.915 65.2293 52.9204 64.0071C52.915 63.0057 53.1822 62.1308 53.722 61.3824C54.2672 60.634 55.0148 60.0499 55.9649 59.6299C56.9149 59.21 57.9945 59 59.2036 59C60.4344 59 61.5086 59.21 62.4262 59.6299C63.3493 60.0499 64.0672 60.634 64.5801 61.3824C65.0929 62.1308 65.3574 62.9976 65.3736 63.9829H62.0133Z" fill="white"/>
<path d="M78.2012 59.2261H81.7072V69.9672C81.7072 71.1732 81.4184 72.2285 80.8408 73.133C80.2686 74.0375 79.467 74.7428 78.436 75.2489C77.405 75.7496 76.204 76 74.8329 76C73.4564 76 72.2526 75.7496 71.2216 75.2489C70.1906 74.7428 69.389 74.0375 68.8168 73.133C68.2446 72.2285 67.9585 71.1732 67.9585 69.9672V59.2261H71.4645V69.6684C71.4645 70.2983 71.6022 70.8583 71.8775 71.3482C72.1582 71.8382 72.5522 72.2231 73.0596 72.5031C73.567 72.7831 74.1581 72.923 74.8329 72.923C75.513 72.923 76.1041 72.7831 76.6061 72.5031C77.1135 72.2231 77.5049 71.8382 77.7802 71.3482C78.0609 70.8583 78.2012 70.2983 78.2012 69.6684V59.2261Z" fill="white"/>
<path d="M98.4619 59.2261V75.7658H95.4336L88.2192 65.3558H88.0978V75.7658H84.5918V59.2261H87.6686L94.8264 69.628H94.9721V59.2261H98.4619Z" fill="white"/>
<path d="M112.354 64.5724C112.241 64.1794 112.082 63.8321 111.877 63.5306C111.671 63.2238 111.42 62.9653 111.124 62.7553C110.832 62.54 110.497 62.3758 110.12 62.2627C109.747 62.1496 109.334 62.0931 108.881 62.0931C108.033 62.0931 107.288 62.3031 106.646 62.723C106.009 63.143 105.512 63.7541 105.156 64.5563C104.8 65.3531 104.622 66.3276 104.622 67.4798C104.622 68.632 104.797 69.6119 105.148 70.4195C105.499 71.2271 105.995 71.8435 106.638 72.2689C107.28 72.6888 108.039 72.8988 108.913 72.8988C109.707 72.8988 110.384 72.7588 110.945 72.4789C111.512 72.1935 111.944 71.7924 112.241 71.2755C112.543 70.7587 112.694 70.1476 112.694 69.4423L113.407 69.5473H109.132V66.9145H116.071V68.9981C116.071 70.4518 115.763 71.7009 115.148 72.7454C114.532 73.7845 113.685 74.5867 112.605 75.152C111.526 75.712 110.29 75.9919 108.897 75.9919C107.342 75.9919 105.977 75.65 104.8 74.9663C103.623 74.2771 102.705 73.2999 102.047 72.0347C101.394 70.7641 101.067 69.2565 101.067 67.5121C101.067 66.1715 101.261 64.9762 101.65 63.9264C102.044 62.8711 102.595 61.9774 103.302 61.2451C104.009 60.5129 104.832 59.9557 105.771 59.5734C106.711 59.1911 107.728 59 108.824 59C109.763 59 110.638 59.1373 111.447 59.4119C112.257 59.6811 112.975 60.0633 113.601 60.5587C114.233 61.054 114.748 61.6435 115.148 62.3273C115.547 63.0057 115.804 63.7541 115.917 64.5724H112.354Z" fill="white"/>
<path d="M123.35 62.1093V59.2261H136.969V62.1093H131.892V75.7658H128.427V62.1093H123.35Z" fill="white"/>
<path d="M153.694 67.496C153.694 69.2996 153.351 70.834 152.665 72.0993C151.985 73.3645 151.057 74.331 149.88 74.9986C148.708 75.6608 147.391 75.9919 145.928 75.9919C144.455 75.9919 143.132 75.6581 141.961 74.9905C140.79 74.3229 139.864 73.3565 139.184 72.0912C138.504 70.826 138.163 69.2942 138.163 67.496C138.163 65.6923 138.504 64.1579 139.184 62.8926C139.864 61.6274 140.79 60.6637 141.961 60.0014C143.132 59.3338 144.455 59 145.928 59C147.391 59 148.708 59.3338 149.88 60.0014C151.057 60.6637 151.985 61.6274 152.665 62.8926C153.351 64.1579 153.694 65.6923 153.694 67.496ZM150.139 67.496C150.139 66.3276 149.963 65.3424 149.613 64.5401C149.267 63.7379 148.779 63.1295 148.147 62.715C147.515 62.3004 146.776 62.0931 145.928 62.0931C145.081 62.0931 144.341 62.3004 143.71 62.715C143.078 63.1295 142.587 63.7379 142.236 64.5401C141.891 65.3424 141.718 66.3276 141.718 67.496C141.718 68.6643 141.891 69.6496 142.236 70.4518C142.587 71.254 143.078 71.8624 143.71 72.277C144.341 72.6915 145.081 72.8988 145.928 72.8988C146.776 72.8988 147.515 72.6915 148.147 72.277C148.779 71.8624 149.267 71.254 149.613 70.4518C149.963 69.6496 150.139 68.6643 150.139 67.496Z" fill="white"/>
<path d="M166.533 59.2261H170.039V69.9672C170.039 71.1732 169.751 72.2285 169.173 73.133C168.601 74.0375 167.799 74.7428 166.768 75.2489C165.737 75.7496 164.536 76 163.165 76C161.788 76 160.585 75.7496 159.554 75.2489C158.523 74.7428 157.721 74.0375 157.149 73.133C156.577 72.2285 156.291 71.1732 156.291 69.9672V59.2261H159.797V69.6684C159.797 70.2983 159.934 70.8583 160.21 71.3482C160.49 71.8382 160.884 72.2231 161.392 72.5031C161.899 72.7831 162.49 72.923 163.165 72.923C163.845 72.923 164.436 72.7831 164.938 72.5031C165.446 72.2231 165.837 71.8382 166.112 71.3482C166.393 70.8583 166.533 70.2983 166.533 69.6684V59.2261Z" fill="white"/>
<path d="M172.924 75.7658V59.2261H179.466C180.719 59.2261 181.787 59.4496 182.673 59.8964C183.563 60.3379 184.241 60.9652 184.705 61.7781C185.175 62.5857 185.409 63.536 185.409 64.629C185.409 65.7273 185.172 66.6722 184.697 67.4637C184.222 68.2497 183.534 68.8527 182.632 69.2727C181.736 69.6926 180.651 69.9026 179.377 69.9026H174.997V67.0922H178.81C179.48 67.0922 180.036 67.0006 180.478 66.8176C180.921 66.6345 181.25 66.3599 181.466 65.9938C181.687 65.6277 181.798 65.1728 181.798 64.629C181.798 64.0798 181.687 63.6168 181.466 63.2399C181.25 62.863 180.918 62.5777 180.47 62.3838C180.028 62.1846 179.469 62.085 178.794 62.085H176.43V75.7658H172.924ZM181.879 68.239L186 75.7658H182.13L178.098 68.239H181.879Z" fill="white"/>
</g>
</g>
</svg>
